# xmcd
#
# Track frame offsets: 
#        150
#        12088
#        29494
#        44975
#        58619
#        71951
#        87201
#        104170
#        116471
#        133491
#        145917
#        161211
#        174330
#        189778
#        205035
#        221656
#        237048
#        250064
#        265211
#        280846
#        304052
#
# Disc length: 4274 seconds
#
# Revision: 2
# Processed by: cddbd v1.5.2PL0 Copyright (c) Steve Scherf et al.
# Submitted via: ExactAudioCopyFreeDBPlugin 1.0
#
DISCID=3e10b015
DTITLE=Various Artist - Holland Dozier Holland:  The Complete 45s Col
DTITLE=lection (Invictus, Hot Wax, Music Merchant), 1969-1977 [Harmles
DTITLE=s box set]
DYEAR=2014
DGENRE=Soul
TTITLE0=Glass House - Giving Up the Ring
TTITLE1=Harrison Kennedy - Come Together
TTITLE2=Ty Hunter - Hey There Lonely Girl
TTITLE3=The Barrino Brothers - Try It, You'll Like It
TTITLE4=Parliament - Come in Out of the Rain
TTITLE5=The 8th Day - I Gotta Get Home (Can't Let My Baby Get Lonely)
TTITLE6=Holland-Dozier - Why Can't We Be Lovers
TTITLE7=The Chairmen of the Board - Let Me Down Easy
TTITLE8=Freda Payne - He's in My Life
TTITLE9=Glass House - Thanks I Needed That
TTITLE10=The Barrino Brothers - Livin' High Off the Goodness of Your L
TTITLE10=ove
TTITLE11=Danny Woods - Everybody's Tippin'
TTITLE12=Holland-Dozier - Don't Leave Me Starving for Your Love
TTITLE13=The Chairmen of the Board - Finder's Keepers (vocal)
TTITLE14=General Johnson - Only Time Will Tell (vocal)
TTITLE15=Holland-Dozier - Slipping Away
TTITLE16=Holland-Dozier - New Breed Kinda Woman (ft Lamont Dozier)
TTITLE17=Freda Payne - Two Wrongs Don't Make a Right
TTITLE18=The Barrino Brothers - Born on the Wild  (vocal)
TTITLE19=Freda Payne - Mother Misery's Favorite Child
TTITLE20=Holland-Dozier - I'm Gonna Hijack Ya, Kidnap Ya, Take What I 
TTITLE20=Want
EXTD=
EXTT0=
EXTT1=
EXTT2=
EXTT3=
EXTT4=
EXTT5=
EXTT6=
EXTT7=
EXTT8=
EXTT9=
EXTT10=
EXTT11=
EXTT12=
EXTT13=
EXTT14=
EXTT15=
EXTT16=
EXTT17=
EXTT18=
EXTT19=
EXTT20=
PLAYORDER=
